<svg version="1.1" style="fill:black" xmlns="http://www.w3.org/2000/svg" x="0" y="0" viewBox="0 0 271.4 101"
	xml:space="preserve">
	<style>
		.prefix__st0 {
			fill: white
		}

		.prefix__st1 {
			fill: black
		}
	</style>
	<path
		d="M108.4 0h-27v89.7h27V0zM97.8 4.8v79.9h-5.7V4.8h5.7zM179.3 48.2V101H190V85.3l5.7-3.3v19h10.6V32.6l-27 15.6zm16.4 28.1l-5.7 3.3V49l5.7-3.3v30.6zM75.8 66.3V0H48.9v101h10.6V81.5l5.7 3.3V101h10.6V85.2l-16.3-9.5 16.3-9.4zM59.5 4.8h5.7v62l-5.7 3.3V4.8zM238.8 32.2V0h-26.9v69.5h10.6V47.3l5.7 3.4v18.7h10.6V51.1l-16.3-9.5 16.3-9.4zM222.5 4.8h5.7v27.8l-5.7 3.3V4.8zM32.6 0v85.8l-5.7 3.3V0H16.3v85.8l-5.7 3.3V0H0v101l16.3-9.5v9.5l16.3-9.5v9.4l10.6-6.1V0zM135.7 3.1l-5.3 3v.1l-5.7 3.3V0h-10.6v42.2h10.6v-27l5.7-3.3v30.3H141V0zM127.6 78.5v4.7l2.8 1.7v11h-5.7V63.6h5.7v10.9l10.6 6.1V58.8h-26.9v42.1H141V86.3zM163 95.9h-5.7v.7V4.8h5.7v44l10.6-5.6V0h-26.9v100.9h26.9V50.2L163 56.3zM260.8 50.6v.1l-5.7-3.4V4.8h5.7v40.1l10.6 6.2V0h-26.9v46.9l16.3 9.4v39.6h-5.7V58.8l-10.6-6.2v48.3h26.9V56.8zM179.4 0v40.4l26.9-15.9V21l-9.6-5.3 9.6-6.1V0h-3.7v7.1l-2.4-3-2.7 2.1 2 2.8-6.6 4.1-7-4.2 3.5-2.7-1.9-2.5-4.5 3.1V0h-3.6zm4.3 18c0-1.4 1.1-2.5 2.5-2.5s2.5 1.1 2.5 2.5-1.1 2.5-2.5 2.5-2.5-1.2-2.5-2.5z" />
	<path
		d="M237.6 34.4v2.2l-1.4-1-.6.8 1.2.9-2.3 1.4-2.2-1.4.7-.9-.9-.7-.8 1v-2.4H230v3.2l3.2 2-3.2 1.7v1.1l8.9 5.2V34.4h-1.3zm-1 6.7c-.5 0-.8-.4-.8-.8s.4-.8.8-.8.8.4.8.8-.4.8-.8.8z" />
	<path class="prefix__st0"
		d="M238.8 34.4v13.3l-8.9-5.2v-1.1l3.2-1.7-3.2-2v-3.2h1.2v2.3l.8-1 .9.7-.7.9 2.2 1.4 2.3-1.4-1.2-.9.6-.8 1.4 1v-2.2h1.4m-2.2 6.6c.5 0 .8-.4.8-.8s-.4-.8-.8-.8c-.5 0-.8.4-.8.8s.3.8.8.8m2.2-7.9h-1.2c-.6 0-1.2.5-1.2 1.1v.1h-.3c-.4 0-.7.2-.9.5l-.6.8c-.3.4-.3 1 0 1.5l-.2.2-.5-.3c.3-.5.2-1.2-.3-1.5l-.9-.7c-.1-.1-.2-.1-.3-.2v-.2c0-.6-.5-1.2-1.2-1.2H230c-.7 0-1.2.5-1.2 1.2v3.2c0 .4.2.8.6 1l1.5.9-1.3.7c-.4.2-.6.6-.6 1v1.1c0 .4.2.8.6 1l8.9 5.2c.2.1.4.2.6.2.2 0 .4-.1.6-.2.4-.2.6-.6.6-1V34.4c-.3-.7-.8-1.2-1.5-1.2z" />
	<path
		d="M74.6 68.4v2.2l-1.4-1-.6.8 1.2.9-2.3 1.4-2.2-1.4.7-.9-.9-.7-.8 1v-2.4h-1.2v3.2l3.2 2-3.2 1.8v1.1l8.9 5.2V68.4h-1.4zm-1 6.8c-.4 0-.8-.4-.8-.8 0-.5.4-.8.8-.8.5 0 .8.4.8.8-.1.4-.4.8-.8.8z" />
	<path class="prefix__st0"
		d="M75.8 68.4v13.3l-8.9-5.2v-1.1l3.2-1.7-3.2-2v-3.2h1.2v2.4l.8-1 .9.7-.7.9 2.2 1.4 2.3-1.4-1.2-.9.6-.8 1.4 1v-2.2h1.4m-2.3 6.6c.4 0 .8-.4.8-.8 0-.5-.4-.8-.8-.8-.5 0-.8.4-.8.8s.4.8.8.8m2.3-7.9h-1.2c-.6 0-1.2.5-1.2 1.2v.1h-.3c-.4 0-.7.2-.9.5l-.6.8c-.3.4-.3 1 0 1.5l-.2.2-.5-.3c.3-.5.2-1.2-.3-1.5l-.9-.7c-.1-.1-.2-.1-.3-.2v-.2c0-.6-.5-1.2-1.2-1.2H67c-.6 0-1.2.5-1.2 1.2v3.2c0 .4.2.8.6 1l1.5.9-1.4.8c-.4.2-.6.6-.6 1v1.1c0 .4.2.8.6 1l8.9 5.2c.2.1.4.2.6.2.2 0 .4-.1.6-.2.4-.2.6-.6.6-1V68.4c-.3-.6-.8-1.1-1.4-1.1z" />
	<path d="M114.1 47.9H141v5h-26.9zM81.5 95.9h26.9v5H81.5zM211.9 95.9h26.9v5h-26.9zM211.9 75.2h26.9v5h-26.9z" />
	<path class="prefix__st1"
		d="M214.6 86.3v.9h-1.2v.7h1.1v.9h-1.1v.7h1.2v.9h-2.2v-3.9h2.2zM215.3 90l.4-.8c.2.2.6.4.9.4.1 0 .3 0 .4-.1.1-.1.1-.2.1-.2 0-.1 0-.2-.1-.2-.2-.1-.3-.2-.5-.2l-.3-.1-.6-.3c-.2-.2-.2-.4-.2-.7 0-.4.1-.7.4-1 .3-.3.6-.4 1-.4s.8.1 1.2.3l-.4.8c-.2-.2-.4-.3-.7-.3-.1 0-.2 0-.3.1-.1.1-.1.1-.1.2v.2c.1.1.2.2.3.2l.3.1c.3.1.5.2.7.4.2.2.3.4.3.7 0 .4-.1.7-.4 1-.3.3-.7.4-1.2.4-.3 0-.5 0-.8-.1-.1-.2-.3-.3-.4-.4zM221.3 87.2h-.8v3.1h-1v-3.1h-.8v-.9h2.7l-.1.9zM222.2 90.4c-.2 0-.3-.1-.4-.2-.1-.1-.2-.3-.2-.4 0-.2.1-.3.2-.4.1-.1.3-.2.4-.2.2 0 .3.1.4.2.1.1.2.3.2.4.1.3-.2.6-.6.6.1 0 .1 0 0 0zM227.8 89.4v.9h-3.1l1-1c.3-.3.6-.6.8-1 .1-.2.2-.4.2-.6 0-.1 0-.3-.1-.4-.1-.1-.2-.1-.3-.1-.1 0-.3.1-.3.2-.1.1-.2.3-.1.5h-1.1c0-.4.2-.8.4-1.1.6-.5 1.6-.5 2.2 0 .3.3.4.6.4 1 0 .5-.2.9-.6 1.2l-.7.6 1.3-.2zM231.8 88.3c0 .6-.2 1.2-.6 1.6-.6.6-1.6.6-2.1 0-.4-.4-.6-1-.6-1.6 0-.6.2-1.2.6-1.6.6-.6 1.6-.6 2.2 0 .3.4.5 1 .5 1.6zm-1.7-1.1c-.1 0-.2 0-.3.1-.1.1-.2.3-.2.4-.1.2-.1.4-.1.6 0 .2 0 .4.1.6 0 .2.1.3.2.4.2.2.4.2.6 0 .1-.1.2-.3.2-.4.1-.2.1-.4.1-.6 0-.2 0-.4-.1-.6 0-.2-.1-.3-.2-.4-.1-.1-.2-.1-.3-.1zM233.1 90.3v-3.1h-.6v-.9h1.6v3.9h-1zM238.4 89.4v.9h-3.1l1-1c.3-.3.6-.6.8-1 .1-.2.2-.4.2-.6 0-.1 0-.3-.1-.4-.1-.1-.2-.1-.3-.1-.1 0-.3.1-.3.2-.1.1-.2.3-.1.5h-1c0-.4.1-.8.4-1.1.6-.5 1.6-.5 2.2 0 .3.3.4.6.4 1 0 .5-.2.9-.6 1.2l-.6.6 1.1-.2z" />
</svg>